<svg id="Laag_1" data-name="Laag 1" xmlns="http://www.w3.org/2000/svg" viewBox="0 0 481.54 411.68"><defs><style>.cls-1{fill:#232323;}.cls-2{fill:#ed1f24;}</style></defs><title>imdlogo</title><path class="cls-1" d="M1235.82,193.82l-168.56-179a40.71,40.71,0,0,0-57.55-1.75q-0.9.85-1.75,1.75l-84.39,89.67L837.24,12.82a40.77,40.77,0,0,0-70.43,27.87V307a69.14,69.14,0,0,1,81.47-1.27V143.44l45.6,48.39a40.85,40.85,0,0,0,57.75,1.59q0.82-.77,1.59-1.59l84.39-89.61,112.68,119.64L1046.66,332.47a40.74,40.74,0,0,0,59.47,55.71L1235.9,249.65a40.86,40.86,0,0,0-.09-55.83" transform="translate(-765.34 -0.02)"/><path class="cls-2" d="M849.68,369.57a42.17,42.17,0,1,1-42.17-42.21,42.17,42.17,0,0,1,42.17,42.21" transform="translate(-765.34 -0.02)"/></svg>